<?xml version="1.0" encoding="utf-8"?>
<!-- Generator: Adobe Illustrator 19.1.0, SVG Export Plug-In . SVG Version: 6.00 Build 0)  -->
<svg version="1.1" id="Layer_1" xmlns="http://www.w3.org/2000/svg" xmlns:xlink="http://www.w3.org/1999/xlink" x="0px" y="0px"
	 viewBox="0 0 64 64" enable-background="new 0 0 64 64" xml:space="preserve">
<g id="SMILE_1_">
	<path d="M46.4257965,41.0966988c-0.4990005-0.2343979-1.0937958-0.0205002-1.3311005,0.4775009
		C44.9511986,41.8769989,41.4667969,49,32,49c-9.4491997,0-12.9384995-7.0966988-13.0946999-7.4238014
		c-0.2334003-0.5-0.8262005-0.7138977-1.3290997-0.482399c-0.5,0.2342987-0.7158012,0.8291016-0.4824009,1.3300018
		C17.2577991,42.7733994,21.2266006,51,32,51s14.7421989-8.2266006,14.9062958-8.5761986
		C47.1395988,41.9238014,46.9237976,41.3311005,46.4257965,41.0966988z"/>
	<path d="M32,0C14.3268995,0,0,14.3268003,0,32c0,17.6730995,14.3268995,32,32,32s32-14.3269005,32-32
		C64,14.3268003,49.6730957,0,32,0z M32,62C15.4579,62,2,48.542099,2,32S15.4579,2,32,2s30,13.4579,30,30S48.542099,62,32,62z"/>
	<path d="M22,30c3.3136997,0,6-2.6863003,6-6s-2.6863003-6-6-6s-6,2.6863003-6,6S18.6863003,30,22,30z M22,20
		c2.2056007,0,4,1.7943993,4,4s-1.7943993,4-4,4s-4-1.7943993-4-4S19.7943993,20,22,20z"/>
	<path d="M42,18c-3.3137016,0-6,2.6863003-6,6s2.6862984,6,6,6c3.3136978,0,6-2.6863003,6-6S45.3136978,18,42,18z M42,28
		c-2.2056007,0-4-1.7943993-4-4s1.7943993-4,4-4c2.2055969,0,4,1.7943993,4,4S44.2055969,28,42,28z"/>
</g>
<g>
</g>
<g>
</g>
<g>
</g>
<g>
</g>
<g>
</g>
<g>
</g>
<g>
</g>
<g>
</g>
<g>
</g>
<g>
</g>
<g>
</g>
<g>
</g>
<g>
</g>
<g>
</g>
<g>
</g>
</svg>
